<svg xmlns="http://www.w3.org/2000/svg" viewBox="0 0 1080 1080"><defs><style>.cls-1{fill:#5aaa61;}.cls-2{fill:#434f6e;}.cls-3{fill:#fff;}</style></defs><title>Artboard 1</title><g id="Layer_2" data-name="Layer 2"><path class="cls-1" d="M456,299.4c-9.14,7.17-16.49,13.45-22.46,19-27.8,25.92-25.22,35.91-32.14,44,9.27-63.7-14-137-35-171.49a.22.22,0,0,1-.06-.07,77.31,77.31,0,0,0-11.14-14.78C381.59,200.73,416.09,222.33,456,299.4Z"/><path class="cls-1" d="M850.8,89.4c-.71,76.64-7.67,143-19.39,200-59.14,288.26-239.3,340.28-346,290.17-121.9-57.17-148-247.54,211.41-371.22-164,89.74-186,194.81-144.89,232,12.16,11,29.82,16,51,13h0C672.09,443.46,778.43,347.17,850.8,89.4Z"/><path class="cls-1" d="M652,1005c-.22-3.14-.45-6.24-.69-9.32C626.41,664.16,530.2,629.8,530.2,629.8s32.59-.53,65.56-4.14c20.83-2.3,41.83-5.84,54.84-11.26C673,648,692.6,869.2,652,1005Z"/><path class="cls-1" d="M575,202.8a66.44,66.44,0,0,1-.34,6.8,68.58,68.58,0,1,1,.34-6.8Z"/><path class="cls-2" d="M575,202.8a66.44,66.44,0,0,1-.34,6.8,68.6,68.6,0,0,1-101.86-60,66.44,66.44,0,0,1,.34-6.8A68.6,68.6,0,0,1,575,202.8Z"/><path class="cls-2" d="M433.54,318.43c-27.8,25.92-25.22,35.91-32.14,44,9.27-63.7-14-137-35-171.49C387.83,219.43,429.72,279.41,433.54,318.43Z"/><path class="cls-2" d="M831.41,289.45c-59.14,288.26-239.3,340.28-346,290.17.93-19.27,6.62-42.7,21-70.22,18-34.34,33.33-55.72,45.51-69,12.16,11,29.82,16,51,13h0C728.78,445,828.13,293.2,828.13,293.2Z"/><path class="cls-2" d="M651.31,995.68C626.41,664.16,530.2,629.8,530.2,629.8s32.59-.53,65.56-4.14C666.88,714.18,654.79,946.28,651.31,995.68Z"/></g><g id="Layer_3_copy" data-name="Layer 3 copy"><path class="cls-1" d="M753.31,212.47l-33.95,3.15,35,23.43s20.29-10.14,24.69-10.61C777.88,225.89,753.31,212.47,753.31,212.47Z"/><path class="cls-1" d="M626.18,176.53c11.7,5.44,32.32-10.11,32.32-10.11L674.86,199l-34.76,8.14S624,185.22,626.18,176.53Z"/><path class="cls-2" d="M629.35,244.31c6.49-6,17.48-32.57,17.48-32.57l37.78,12-23.15,33.62S638.74,244.65,629.35,244.31Z"/><path class="cls-2" d="M752.07,263.8c-10.9-10.42-27.82-10.41-27.82-10.41l1-28.16,29.89,4.85S756.12,255.8,752.07,263.8Z"/><path class="cls-1" d="M708.06,130c-2.08,5.56-20.26,23.07-20.26,23.07l20.08,50.85,22-53.08S713.39,138.34,708.06,130Z"/><path class="cls-2" d="M683.26,122.84c5.33,8.34,27.83,27.32,30.84,30.57-12.63,2.67-33.23,35.13-33.23,35.13l-15.2-30S681.06,131.53,683.26,122.84Z"/><path class="cls-1" d="M749.08,139c-3.24,3-30.46,10.8-30.46,10.8l7,32.21,21.66-9.87S752.56,146.66,749.08,139Z"/><path class="cls-1" d="M630.49,213c3.48,7.65,27.7,13.54,27.7,13.54l37.06-20-54.47-18.26S635.12,206.3,630.49,213Z"/><path class="cls-2" d="M646.55,150.33c-1.5,6.84,15.09,33.12,15.09,33.12l41.26,19.67-26.81-55.48S653.39,151.83,646.55,150.33Z"/><path class="cls-1" d="M662.28,269.31c-8.82-16-13.12-35.56-13.12-35.56l43.43-22.86-6.1,47.39S671.31,262.12,662.28,269.31Z"/><path class="cls-2" d="M737.6,282.69a44.63,44.63,0,0,0-26-9.71l-13.83-50.62,37.1,30.79S740.49,272.15,737.6,282.69Z"/><path class="cls-1" d="M690.56,284.12c17.37-12.53,24.21-11,24.21-11L698.86,228l-19.32,31.88S679.31,266.17,690.56,284.12Z"/><path class="cls-3" d="M655.19,240.23c4.4-.46,7.88,7.18,9.36,12.66,3.62-7.8,26.77-41.42,26.77-41.42l-11.82-2.31S651.59,235.72,655.19,240.23Z"/><path class="cls-1" d="M760.11,163.22C754.32,167.4,717.6,178,717.6,178l.59,18.19L760,183.27S764.17,172.14,760.11,163.22Z"/><path class="cls-2" d="M783.77,201.67c-5-.81-28.52-25.47-28.52-25.47l-35.79,19.38,33.85,16.89S778.68,204,783.77,201.67Z"/><path class="cls-3" d="M698.5,203.59l20.75,15.16s28.85-.83,41-7.91c-8.11-.92-20.87-12-20.64-18.29C736,188,698.5,203.59,698.5,203.59Z"/><path class="cls-3" d="M692.13,206.49s-2.41,31.86-7.74,40.44c5.57,2.08,20.87,12,22.49,19,7-1.63-2-48.32-2-48.32Z"/><path class="cls-3" d="M721.77,183.76l13.44-7.66s-11.48-11.69-6.85-18.42c-12.05,3.95-7.07,4.76-17.84,8.13C717.82,171.71,721.77,183.76,721.77,183.76Z"/><path class="cls-3" d="M699.88,199.88s-19.71-26.4-27.6-33.58c9.39.34,13.9-3.26,19.69-7.43,1,5.68,14.86,39.38,14.86,39.38Z"/><path class="cls-3" d="M695.48,200.35l-27-15.39S662,191,643,196.56c3,3.24,2.9,6.37,2.25,17.66C659,204.66,695.48,200.35,695.48,200.35Z"/><path class="cls-1" d="M703.59,201.27l33.62,23.14s-1.26,17.5,4,29c-10.43-6-35.35-10.06-35.35-10.06Z"/><path class="cls-2" d="M699.3,198.6s18.19-15.92,18.36-21.4c1.56,7.72,2.72,10.27,2.72,10.27s1.74,3.82,7.71,6.57c-7.35,1-21.6,13.6-21.6,13.6s12.66,31.16,17.06,30.69c-6.95,1.63-13.32,4.53-15.29,7-3-3.24-10.68-33.59-10.68-33.59s-14.69,7.4-17.14,5.85c.11-2.71-4.65-9.77-7.55-16.14C684.71,203.71,699.3,198.6,699.3,198.6Z"/></g><g id="Layer_3" data-name="Layer 3"><path class="cls-1" d="M339.8,106.2l-11.2,32.2,35.82-22.13S363.6,93.6,365,89.4C362.2,89.4,339.8,106.2,339.8,106.2Z"/><path class="cls-1" d="M254.4,207c9.8-8.4,4.2-33.6,4.2-33.6L295,172l-7,35S261.4,212.6,254.4,207Z"/><path class="cls-2" d="M317.4,232.2c-2.8-8.4-22.4-29.4-22.4-29.4l26.6-29.4,21,35S321.6,223.8,317.4,232.2Z"/><path class="cls-2" d="M386,128.6c-14,5.6-21,21-21,21L339.8,137l16.8-25.2S380.4,121.6,386,128.6Z"/><path class="cls-1" d="M246,113.2c4.2,4.2,12.6,28,12.6,28l54.6,2.8L274,102S255.8,111.8,246,113.2Z"/><path class="cls-2" d="M229.2,132.8c9.8-1.4,36.4-14,40.6-15.4C267,130,288,162.2,288,162.2l-33.6,1.4S236.2,138.4,229.2,132.8Z"/><path class="cls-1" d="M271.2,79.6c1.4,4.2-2.8,32.2-2.8,32.2l32.2,7V95S279.6,79.6,271.2,79.6Z"/><path class="cls-1" d="M289.4,218.2c8.4,0,23.8-19.6,23.8-19.6l-2.8-42-39.2,42S285.2,211.2,289.4,218.2Z"/><path class="cls-2" d="M239,177.6c5.6,4.2,36.4,0,36.4,0l35-29.4-61.6,1.4S243.2,172,239,177.6Z"/><path class="cls-1" d="M353.8,212.6c-18.2,1.4-37.8-2.8-37.8-2.8l-2.8-49L353.8,186S351,201.4,353.8,212.6Z"/><path class="cls-2" d="M397.2,149.6a44.67,44.67,0,0,0-19.6,19.6l-51.8-8.4,43.4-21S388.8,142.6,397.2,149.6Z"/><path class="cls-1" d="M379,193c-4.2-21,0-26.6,0-26.6l-47.6-4.2,21,30.8S358,195.8,379,193Z"/><path class="cls-3" d="M324.4,207c1.4-4.2,9.8-4.2,15.4-3.27-5.6-6.53-26.6-41.53-26.6-41.53l-7,9.8S318.8,208.4,324.4,207Z"/><path class="cls-1" d="M297.8,79.6c1.4,7-4.2,44.8-4.2,44.8l16.8,7L316,88S307.6,79.6,297.8,79.6Z"/><path class="cls-2" d="M342.6,74c-2.8,4.2-35,15.4-35,15.4l2.8,40.6,29.4-23.8S342.6,79.6,342.6,74Z"/><path class="cls-3" d="M309,152.4l22.4-12.6s11.2-26.6,9.8-40.6c-4.2,7-19.6,14-25.2,11.2C310.4,111.8,309,152.4,309,152.4Z"/><path class="cls-3" d="M309,159.4s28,15.4,33.6,23.8c4.2-4.2,19.6-14,26.6-12.6,1.4-7-44.8-18.2-44.8-18.2Z"/><path class="cls-3" d="M300.6,123l-1.4-15.4s-15.4,5.6-19.6-1.4c-1.4,12.6,1.4,8.4,0,19.6C288,121.6,300.6,123,300.6,123Z"/><path class="cls-3" d="M306.2,149.6s-32.2,7-42,11.2c4.2-8.4,2.8-14,1.4-21,5.6,1.4,42,2.8,42,2.8Z"/><path class="cls-3" d="M304.8,153.8,279.6,172s2.8,8.4,0,28c4.2-1.4,7,0,17,5.27C293.6,188.8,304.8,153.8,304.8,153.8Z"/><path class="cls-1" d="M309,146.8l35-21s15.4,8.4,28,8.4c-9.8,7-23.8,28-23.8,28Z"/><path class="cls-2" d="M304.8,149.6s-6.95-23.15-11.88-25.58c7.68,1.78,10.48,1.78,10.48,1.78s4.2,0,9.17-4.29C310.4,128.6,316,146.8,316,146.8s33.6,1.4,35-2.8c-1.4,7-1.4,14,0,16.8-4.2,1.4-35-4.2-35-4.2s.64,16.43-1.78,18c-2.42-1.22-10.82.18-17.82.18C303.4,165,304.8,149.6,304.8,149.6Z"/></g></svg>